<svg id="Capa_1" data-name="Capa 1" xmlns="http://www.w3.org/2000/svg" viewBox="0 0 1500 170.84"><defs><style>.cls-2{fill:#00ae42}.cls-2,.cls-5{fill-rule:evenodd}.cls-4,.cls-5{fill:#fff}</style></defs><path d="M254.1 160.7a19.23 19.23 0 01-5.62-.78 11.15 11.15 0 01-6.89-5.33c-.9-1.67-1.43-2.87-2.06-4.26l-.6-1.33 7.12-3.25.62 1.38c.61 1.36 1.05 2.34 1.83 3.79a3.77 3.77 0 002.27 1.51 14.49 14.49 0 007.79-.19 16.67 16.67 0 01-1-1.61c-.48-.91-1.25-1.27-4.59-1.5l.54-7.81c3.09.21 8.26.57 11 5.63a12 12 0 001.29 1.85c1 1.2 2.42 3 1.91 5.48a6.28 6.28 0 01-3.47 4.08 22.29 22.29 0 01-10.14 2.34z" transform="translate(.34 -.13)" fill="#ea0029"/><path class="cls-2" d="M100.38.13c3.89 2.79 9.27 3.69 9.27 10 0 36.67-50.83 96.59-90 115.87C45.34 90.61 100.87 42.42 100.38.13z" transform="translate(.34 -.13)"/><path d="M188.64 12.67c2.82 0 14.89-.92 21.13 12-9.23.61-80.06.3-80.06 22.11 0 6.32 5.33 8.85 11.6 9l58.9 12.33-.62 9.8c-22 4.53-97.46 1.7-97.46 30.79 0 6.32 3.61 7.7 6.75 7.68h90.27c2.91 2.8 5.78 6.22 5.41 12.36l-100.08-.07c-12.1-2.54-17.4-15.55-17.4-18.71 0-30.66 56.14-34.94 67.7-40.44-3.06-.79-40.12 0-40.12-22.78 0-26.17 63.94-34.07 73.98-34.07z" transform="translate(.34 -.13)" fill-rule="evenodd" fill="#ea0029"/><path class="cls-2" d="M45.71 129c25.39 0 50.15 25.29 75.22 25.29 6.27 0 43.88-15.18 50.15-15.18 24.76 0 30.11 23.11 63 15.22l5.92 6.36c-6.63 7.13-12.85 8.77-18.8 8.77-17.86 0-33.85-17.7-53.91-17.7-6.27 0-43.88 15.17-50.15 15.17-26.95 0-40.43-25.29-75.22-25.29-6.27 0-23.48 5-42.29 9.86l4-5.75C6.43 143.76 38.19 129 45.71 129z" transform="translate(.34 -.13)"/><path class="cls-4" d="M408.85 110.52V92.87h-111.4v76.26h111.4v-17.66h-93.9v-11.03h46.21v-17.41h-46.21v-12.51h93.9zM542.88 110.52V92.87H431.47v76.26h111.41v-17.66h-93.9v-40.95h93.9zM565.8 169.13V92.87h19.21v30.16h79.94V92.87h19.94v76.26h-19.94v-28.69h-79.94v28.69H565.8zM816.71 110.52V92.87H705.3v76.26h111.41v-17.66h-93.9v-11.03h46.2v-17.41h-46.2v-12.51h93.9zM829.67 92.87l71.24 77.97 71.23-77.97h-27.48l-43.75 48.8-44.48-48.8h-26.76z"/><path class="cls-4" d="M1062.69 169.26h26.75l-71.22-78-71.25 78h27.49l13.64-15.21h60.73zm-59.42-32.13l15-16.67 15.19 16.67zM1124 123.9h76s7.54-.74 7.54-6.13-7.06-7.12-7.06-7.12H1124zm-18 45.36V93h92.34s26.52.24 26.52 25c0 16.92-19.46 23.54-19.46 23.54l23.84 27.71h-24.84l-23.35-29.67h-57.33v29.67z" transform="translate(.34 -.13)"/><path class="cls-4" d="M1500 110.52V92.87h-111.41v76.26H1500v-17.66h-93.88v-11.03h46.2v-17.41h-46.2v-12.51H1500zM1244.97 169.13V90.21l100.8 32.82V92.87h20.02v76.26h-19.75v-29.67l-80.44-24.02v53.69h-20.63z"/><path class="cls-5" d="M305.88 16.6h-8.43v40.59h28.51v-7.35h-20.08V16.6z"/><path class="cls-5" d="M353.83 49h14.9l2.59 8.36h9.16l-14.22-40.63h-9.73l-14.39 40.58H351zm7.43-23.06h.1l5 16h-10.28zM397.11 57.31h17.09a36.79 36.79 0 006.48-.45 11.74 11.74 0 003.79-1.26 12.43 12.43 0 005-5.72 12.73 12.73 0 00-.32-10.33 9 9 0 00-5-4.11 10.87 10.87 0 002-1.24 6.91 6.91 0 002-2.52 10.43 10.43 0 00.91-4.55 10.63 10.63 0 00-1-4.56 9.35 9.35 0 00-3.79-4.07 14.82 14.82 0 00-7.61-1.77h-19.55zm8.09-17.86h10.74a7.46 7.46 0 014.18 1.12 4.4 4.4 0 011.91 3.8 5.75 5.75 0 01-1.7 4.52 7.12 7.12 0 01-4.78 1.42H405.2zm0-15.72h9.67a8.71 8.71 0 014.54.93 3.7 3.7 0 011.66 3.43 4 4 0 01-1.74 3.47 7.51 7.51 0 01-4.23 1.05h-9.9zM445.75 37c.06 4.72.82 8.52 2.28 11.37a16.65 16.65 0 005.42 6.46 19.15 19.15 0 006.42 2.88 21.81 21.81 0 0010.57 0 19.23 19.23 0 006.42-2.88 16.8 16.8 0 005.41-6.46c1.46-2.85 2.22-6.65 2.28-11.37s-.82-8.52-2.28-11.37a16.73 16.73 0 00-5.41-6.46 19.23 19.23 0 00-6.42-2.88 21.49 21.49 0 00-10.57 0 19.15 19.15 0 00-6.42 2.88 16.58 16.58 0 00-5.45 6.48c-1.43 2.85-2.19 6.65-2.25 11.35zm8.43 0q.07-5.62 1.83-8.73a10 10 0 014.27-4.27 10.89 10.89 0 019.72 0 10 10 0 014.27 4.31c1.17 2.07 1.77 5 1.83 8.73s-.66 6.67-1.83 8.73a10 10 0 01-4.27 4.29 10.89 10.89 0 01-9.74 0 10 10 0 01-4.26-4.31c-1.16-2.06-1.77-4.98-1.82-8.75zM501.32 57.31h8.26V41.42h8.72a9.7 9.7 0 014.48.77 3.51 3.51 0 011.79 2.47 20.07 20.07 0 01.31 4.46 42.83 42.83 0 00.24 5 19.81 19.81 0 00.66 3.24h9.33v-1.12a2.32 2.32 0 01-1.57-2.07 38.94 38.94 0 01-.22-6 21.59 21.59 0 00-.6-5.71 5.89 5.89 0 00-1.73-3 10.11 10.11 0 00-2.79-1.63 8.69 8.69 0 004.62-3.67 11.33 11.33 0 001.62-6 12.37 12.37 0 00-.91-4.53 10.52 10.52 0 00-3.73-4.75q-2.76-2.09-8.07-2.19h-20.41zm8.26-22.72V23.73h10.52c2.41.09 4 .71 4.81 1.85a5.51 5.51 0 011.1 3.47c0 2-.54 3.41-1.62 4.28a7.67 7.67 0 01-4.91 1.26zM561.42 49h14.9l2.58 8.36h9.17l-14.22-40.63h-9.73l-14.4 40.58h8.89zm7.42-23.06h.16l5 16h-10.33z" transform="translate(.34 -.13)"/><path class="cls-5" d="M616.97 23.4h12.2v-7.17h-32.84v7.17h12.2v33.42h8.44V23.4z"/><path class="cls-5" d="M640.83 37c.06 4.72.82 8.52 2.28 11.37a16.8 16.8 0 005.41 6.46 19.23 19.23 0 006.42 2.88 21.81 21.81 0 0010.57 0 19.15 19.15 0 006.42-2.88 16.63 16.63 0 005.41-6.46c1.47-2.85 2.23-6.65 2.29-11.37s-.82-8.52-2.29-11.37a16.56 16.56 0 00-5.41-6.46 19.15 19.15 0 00-6.42-2.88 21.49 21.49 0 00-10.57 0 19.23 19.23 0 00-6.42 2.88 16.73 16.73 0 00-5.41 6.46c-1.46 2.87-2.22 6.67-2.28 11.37zm8.43 0q.07-5.62 1.83-8.73a10 10 0 014.27-4.27 10.89 10.89 0 019.74 0 10 10 0 014.26 4.31q1.77 3.11 1.84 8.73c-.05 3.75-.66 6.67-1.84 8.73a10 10 0 01-4.26 4.31 10.89 10.89 0 01-9.74 0 10 10 0 01-4.27-4.31c-1.17-2.08-1.78-5-1.83-8.77zM696.3 57.31h8.26V41.42h8.72a9.67 9.67 0 014.48.77 3.51 3.51 0 011.79 2.47 20.6 20.6 0 01.32 4.46 40.68 40.68 0 00.24 5 18.81 18.81 0 00.66 3.24h9.33v-1.12a2.32 2.32 0 01-1.58-2.07 39.9 39.9 0 01-.23-6 21.32 21.32 0 00-.58-5.71 6 6 0 00-1.73-3 10.32 10.32 0 00-2.8-1.63 8.69 8.69 0 004.62-3.67 11.24 11.24 0 001.62-6 12.17 12.17 0 00-.91-4.53 10.46 10.46 0 00-3.73-4.75q-2.76-2.09-8.06-2.19H696.3zm8.26-22.72V23.73h10.52c2.42.09 4 .71 4.82 1.85a5.5 5.5 0 011.1 3.47c0 2-.53 3.41-1.62 4.28a7.64 7.64 0 01-4.9 1.26z" transform="translate(.34 -.13)"/><path class="cls-4" d="M750.04 16.6h8.43v40.58h-8.43z"/><path class="cls-5" d="M777.57 37c.06 4.72.82 8.52 2.28 11.37a16.74 16.74 0 005.42 6.46 19.19 19.19 0 006.41 2.88 21.85 21.85 0 0010.58 0 19.23 19.23 0 006.42-2.88 16.72 16.72 0 005.41-6.46c1.46-2.85 2.22-6.65 2.28-11.37s-.82-8.52-2.28-11.37a16.64 16.64 0 00-5.41-6.46 19.23 19.23 0 00-6.42-2.88 21.53 21.53 0 00-10.58 0 19.19 19.19 0 00-6.41 2.88 16.66 16.66 0 00-5.42 6.46c-1.46 2.87-2.22 6.67-2.28 11.37zm8.43 0q.07-5.62 1.83-8.73A10.07 10.07 0 01792.1 24a10.89 10.89 0 019.74 0 10 10 0 014.27 4.31q1.75 3.11 1.83 8.73c-.05 3.75-.66 6.67-1.83 8.73a10 10 0 01-4.27 4.31 10.89 10.89 0 01-9.74 0 10.07 10.07 0 01-4.27-4.31c-1.17-2.08-1.78-5-1.83-8.77z" transform="translate(.34 -.13)"/></svg>